<?xml version="1.0" encoding="UTF-8" standalone="no"?>
<!DOCTYPE svg PUBLIC "-//W3C//DTD SVG 1.1//EN" "http://www.w3.org/Graphics/SVG/1.1/DTD/svg11.dtd">
<svg width="100%" height="100%" viewBox="0 0 48 48" version="1.1" xmlns="http://www.w3.org/2000/svg" xmlns:xlink="http://www.w3.org/1999/xlink" xml:space="preserve" style="fill-rule:evenodd;clip-rule:evenodd;stroke-linejoin:round;stroke-miterlimit:1.41421;">
    <g transform="matrix(1.19791,0,0,1.13333,-4.7499,-3.19998)">
        <path d="M27.067,18.788C31.655,21.85 34.106,27.161 34.106,32.263C34.106,38.494 26.964,39 22.78,39C20.943,39 13.845,38.355 13.895,31.65C13.933,26.548 16.937,22.372 20.331,18.788L27.067,18.788Z" style="fill:rgb(124,124,124);fill-rule:nonzero;"/>
        <path d="M20.632,16.334C20.632,16.334 26.757,16.345 26.757,16.334C26.757,15.56 27.063,14.681 27.344,14.272C27.633,13.851 28.28,13.382 28.62,12.945C29.416,11.922 28.138,10.531 27.043,11.151C26.703,11.344 26.252,11.887 26.145,12.264C26.356,11.522 26.031,10.729 25.626,10.12C25.194,9.472 24.565,9.141 23.795,9.031C23.114,8.933 22.444,9.065 22.036,9.448C21.606,9.851 21.168,10.647 21.238,11.643C20.961,10.971 20.439,10.261 19.743,9.99C19.134,9.753 18.509,10.104 18.272,10.671C17.994,11.336 18.226,12.143 18.647,12.701C19.105,13.307 19.811,13.725 20.122,14.425C20.443,15.147 20.552,16.334 20.632,16.334Z" style="fill:rgb(73,73,73);fill-rule:nonzero;"/>
        <path d="M25.461,32.39C24.947,33.286 24.015,33.797 22.74,33.797C21.351,33.797 20.019,32.943 20.019,31.115C20.019,29.079 21.712,28.051 23.729,28.051C24.3,28.051 24.928,28.166 25.385,28.375L25.385,27.5C25.385,26.282 24.796,25.711 23.654,25.711C22.798,25.711 21.408,26.149 20.724,26.566C20.666,26.415 20.647,26.129 20.647,25.92C20.647,25.426 20.762,24.874 20.933,24.589C21.599,24.265 23.102,23.998 24.186,23.998C26.413,23.998 27.516,24.949 27.516,27.48L27.516,30.924C27.516,31.419 27.612,31.895 27.764,32.122C28.087,32.122 28.696,32.028 29.058,31.932C29.077,32.029 29.077,32.122 29.077,32.18C29.077,32.542 28.963,32.942 28.81,33.245C28.353,33.512 27.288,33.796 26.451,33.796C26.052,33.568 25.709,32.998 25.595,32.389L25.461,32.389L25.461,32.39ZM25.423,29.44C25.081,29.344 24.548,29.288 24.224,29.288C22.93,29.288 22.207,29.897 22.207,30.81C22.207,31.781 22.893,32.2 23.672,32.2C24.414,32.2 25.08,31.857 25.422,31.381L25.422,29.44L25.423,29.44Z" style="fill:rgb(104,50,10);fill-rule:nonzero;"/>
        <rect x="20.632" y="16.951" width="6.125" height="1.226" style="fill:rgb(0,118,132);"/>
    </g>
</svg>
