<?xml version="1.0" encoding="UTF-8" standalone="no"?>
<!DOCTYPE svg PUBLIC "-//W3C//DTD SVG 1.1//EN" "http://www.w3.org/Graphics/SVG/1.1/DTD/svg11.dtd">
<svg width="100%" height="100%" viewBox="0 0 512 512" version="1.1" xmlns="http://www.w3.org/2000/svg" xmlns:xlink="http://www.w3.org/1999/xlink" xml:space="preserve" style="fill-rule:evenodd;clip-rule:evenodd;stroke-linejoin:round;stroke-miterlimit:1.41421;">
    <g>
        <g transform="matrix(0.783203,0,0,0.783203,47,57.2872)">
            <path d="M256,201.993C261.341,201.993 266.431,203.077 271.059,205.036L271.059,19.781L240.941,19.781L240.941,205.036C245.569,203.077 250.659,201.993 256,201.993Z" style="fill:rgb(45,82,124);fill-rule:nonzero;"/>
        </g>
        <g transform="matrix(0.783203,0,0,0.783203,47,57.2872)">
            <path d="M256,279.294C250.659,279.294 245.569,278.21 240.941,276.251L240.941,405.287L271.059,405.287L271.059,276.251C266.431,278.21 261.341,279.294 256,279.294Z" style="fill:rgb(45,82,124);fill-rule:nonzero;"/>
        </g>
        <g transform="matrix(0.783203,0,0,0.783203,47,57.2872)">
            <path d="M256,294.353C226.384,294.353 202.29,270.259 202.29,240.644C202.29,211.028 226.384,186.934 256,186.934C285.616,186.934 309.71,211.028 309.71,240.644C309.71,270.259 285.616,294.353 256,294.353ZM256,217.052C242.991,217.052 232.407,227.635 232.407,240.645C232.407,253.655 242.99,264.236 256,264.236C269.01,264.236 279.593,253.654 279.593,240.645C279.593,227.636 269.009,217.052 256,217.052Z" style="fill:rgb(45,82,124);fill-rule:nonzero;"/>
        </g>
        <g transform="matrix(0.783203,0,0,0.783203,47,57.2872)">
            <path d="M98.635,201.993C103.976,201.993 109.066,203.077 113.694,205.036L113.694,19.781L83.576,19.781L83.576,205.036C88.204,203.077 93.294,201.993 98.635,201.993Z" style="fill:rgb(45,82,124);fill-rule:nonzero;"/>
        </g>
        <g transform="matrix(0.783203,0,0,0.783203,47,57.2872)">
            <path d="M98.635,279.294C93.294,279.294 88.204,278.21 83.576,276.251L83.576,405.287L113.694,405.287L113.694,276.251C109.067,278.21 103.977,279.294 98.635,279.294Z" style="fill:rgb(45,82,124);fill-rule:nonzero;"/>
        </g>
        <g transform="matrix(0.783203,0,0,0.783203,47,57.2872)">
            <path d="M98.635,294.353C69.019,294.353 44.925,270.259 44.925,240.644C44.925,211.028 69.019,186.934 98.635,186.934C128.251,186.934 152.345,211.028 152.345,240.644C152.346,270.259 128.251,294.353 98.635,294.353ZM98.635,217.052C85.626,217.052 75.042,227.635 75.042,240.645C75.042,253.655 85.625,264.236 98.635,264.236C111.645,264.236 122.228,253.654 122.228,240.645C122.228,227.636 111.645,217.052 98.635,217.052Z" style="fill:rgb(45,82,124);fill-rule:nonzero;"/>
        </g>
        <g transform="matrix(0.783203,0,0,0.783203,47,57.2872)">
            <path d="M471.543,492.225L40.457,492.225C18.149,492.225 0,474.076 0,451.768L0,424.662C0,402.354 18.149,384.205 40.457,384.205L471.543,384.205C493.851,384.205 512,402.354 512,424.662L512,451.768C512,474.076 493.851,492.225 471.543,492.225ZM40.457,414.322C34.756,414.322 30.118,418.96 30.118,424.661L30.118,451.767C30.118,457.468 34.756,462.106 40.457,462.106L471.543,462.106C477.244,462.106 481.882,457.468 481.882,451.767L481.882,424.661C481.882,418.96 477.244,414.322 471.543,414.322L40.457,414.322Z" style="fill:rgb(45,82,124);fill-rule:nonzero;"/>
        </g>
    </g>
    <g transform="matrix(0.783203,0,0,0.783203,47,57.2872)">
        <circle cx="98.635" cy="143.258" r="38.651" style="fill:rgb(206,232,250);"/>
    </g>
    <g transform="matrix(0.783203,0,0,0.783203,47,57.2872)">
        <path d="M98.635,196.974C69.019,196.974 44.925,172.88 44.925,143.264C44.925,113.648 69.019,89.554 98.635,89.554C128.251,89.554 152.345,113.648 152.345,143.264C152.345,172.88 128.251,196.974 98.635,196.974ZM98.635,119.671C85.626,119.671 75.042,130.254 75.042,143.264C75.042,156.273 85.625,166.857 98.635,166.857C111.645,166.857 122.228,156.274 122.228,143.264C122.228,130.254 111.645,119.671 98.635,119.671Z" style="fill:rgb(45,82,124);fill-rule:nonzero;"/>
    </g>
    <g transform="matrix(0.783203,0,0,0.783203,47,57.2872)">
        <circle cx="98.635" cy="338.028" r="38.651" style="fill:rgb(206,232,250);"/>
    </g>
    <g transform="matrix(0.783203,0,0,0.783203,47,57.2872)">
        <path d="M98.635,391.734C69.019,391.734 44.925,367.64 44.925,338.024C44.925,308.409 69.019,284.315 98.635,284.315C128.251,284.315 152.345,308.409 152.345,338.024C152.346,367.64 128.251,391.734 98.635,391.734ZM98.635,314.433C85.626,314.433 75.042,325.015 75.042,338.024C75.042,351.033 85.625,361.617 98.635,361.617C111.645,361.617 122.228,351.034 122.228,338.024C122.228,325.014 111.645,314.433 98.635,314.433Z" style="fill:rgb(45,82,124);fill-rule:nonzero;"/>
    </g>
    <g transform="matrix(0.783203,0,0,0.783203,47,57.2872)">
        <circle cx="256" cy="338.028" r="38.651" style="fill:rgb(206,232,250);"/>
    </g>
    <g>
        <g transform="matrix(0.783203,0,0,0.783203,47,57.2872)">
            <path d="M256,391.734C226.384,391.734 202.29,367.64 202.29,338.024C202.29,308.409 226.384,284.315 256,284.315C285.616,284.315 309.71,308.409 309.71,338.024C309.71,367.64 285.616,391.734 256,391.734ZM256,314.433C242.991,314.433 232.407,325.015 232.407,338.024C232.407,351.033 242.99,361.617 256,361.617C269.01,361.617 279.593,351.034 279.593,338.024C279.593,325.014 269.009,314.433 256,314.433Z" style="fill:rgb(45,82,124);fill-rule:nonzero;"/>
        </g>
        <g transform="matrix(0.783203,0,0,0.783203,47,57.2872)">
            <rect x="398.306" y="19.775" width="30.118" height="385.506" style="fill:rgb(45,82,124);"/>
        </g>
    </g>
    <g transform="matrix(0.783203,0,0,0.783203,47,57.2872)">
        <circle cx="413.365" cy="338.028" r="38.651" style="fill:rgb(206,232,250);"/>
    </g>
    <g transform="matrix(0.783203,0,0,0.783203,47,57.2872)">
        <path d="M413.365,391.734C383.749,391.734 359.655,367.64 359.655,338.024C359.655,308.409 383.749,284.315 413.365,284.315C442.981,284.315 467.075,308.409 467.075,338.024C467.075,367.64 442.981,391.734 413.365,391.734ZM413.365,314.433C400.356,314.433 389.772,325.015 389.772,338.024C389.772,351.033 400.355,361.617 413.365,361.617C426.375,361.617 436.958,351.034 436.958,338.024C436.958,325.014 426.374,314.433 413.365,314.433Z" style="fill:rgb(45,82,124);fill-rule:nonzero;"/>
    </g>
</svg>
