<?xml version="1.0" encoding="UTF-8" standalone="no"?>
<!DOCTYPE svg PUBLIC "-//W3C//DTD SVG 1.1//EN" "http://www.w3.org/Graphics/SVG/1.1/DTD/svg11.dtd">
<svg width="100%" height="100%" viewBox="0 0 24 24" version="1.1" xmlns="http://www.w3.org/2000/svg" xmlns:xlink="http://www.w3.org/1999/xlink" xml:space="preserve" xmlns:serif="http://www.serif.com/" style="fill-rule:evenodd;clip-rule:evenodd;stroke-linecap:round;stroke-miterlimit:1.5;">
    <g>
        <g transform="matrix(5.35783e-17,0.875,0.875,-5.35783e-17,5.49843,12.25)">
            <path d="M2,8L10,8" style="fill:none;stroke:rgb(102,102,102);stroke-width:1.14px;"/>
        </g>
        <g transform="matrix(-5.35783e-17,-0.875,0.875,-5.35783e-17,5.49843,11.75)">
            <path d="M2,8L10,8" style="fill:none;stroke:rgb(102,102,102);stroke-width:1.14px;"/>
        </g>
        <g transform="matrix(6.12323e-17,1,1,-6.12323e-17,4.49843,11)">
            <path d="M8,6L10,8L8,10" style="fill:none;stroke:rgb(102,102,102);stroke-width:1px;stroke-linecap:square;"/>
        </g>
        <g transform="matrix(-6.12323e-17,-1,1,-6.12323e-17,4.49843,13)">
            <path d="M8,6L10,8L8,10" style="fill:none;stroke:rgb(102,102,102);stroke-width:1px;stroke-linecap:square;"/>
        </g>
        <g transform="matrix(6.12323e-17,-1,1,6.12323e-17,0.998429,24)">
            <rect x="11" y="3" width="2" height="17" style="fill:rgb(161,116,116);"/>
        </g>
    </g>
</svg>
