<?xml version="1.0" encoding="UTF-8" standalone="no"?>
<!DOCTYPE svg PUBLIC "-//W3C//DTD SVG 1.1//EN" "http://www.w3.org/Graphics/SVG/1.1/DTD/svg11.dtd">
<svg width="100%" height="100%" viewBox="0 0 48 48" version="1.1" xmlns="http://www.w3.org/2000/svg" xmlns:xlink="http://www.w3.org/1999/xlink" xml:space="preserve" style="fill-rule:evenodd;clip-rule:evenodd;stroke-linejoin:round;stroke-miterlimit:1.41421;">
    <g>
        <path d="M6,6L6,42L42,42L42,6L6,6ZM40,22L40,40L30,40L29,40L19,40L18,40L8,40L8,14L40,14L40,22Z" style="fill:rgb(51,51,51);fill-rule:nonzero;"/>
        <path d="M30,14L29,14L29,22L19,22L19,14L18,14L18,22L8,22L8,14L8,40L8,32L18,32L18,40L19,40L19,32L29,32L29,40L30,40L30,32L40,32L40,31L30,31L30,23L40,23L40,22L30,22L30,14ZM18,31L8,31L8,23L18,23L18,31ZM29,31L19,31L19,23L29,23L29,31Z" style="fill:rgb(102,102,102);fill-rule:nonzero;"/>
        <rect x="8" y="32" width="10" height="8" style="fill:white;"/>
        <rect x="8" y="23" width="10" height="8" style="fill:white;"/>
        <rect x="8" y="14" width="10" height="8" style="fill:white;"/>
        <rect x="19" y="32" width="10" height="8" style="fill:white;"/>
        <rect x="19" y="23" width="10" height="8" style="fill:white;"/>
        <rect x="19" y="14" width="10" height="8" style="fill:white;"/>
        <g transform="matrix(1.20039,0,0,1.15922,-10.0116,-7.01906)">
            <path d="M40,32L40,40L40,32Z" style="fill:white;"/>
        </g>
        <g transform="matrix(1.20039,0,0,1.15922,-6.81118,1.09548)">
            <path d="M40,23L40,31L40,23Z" style="fill:white;"/>
        </g>
        <g transform="matrix(1.5,0,0,2.5,-18,-35.5)">
            <rect x="30" y="23" width="10" height="8" style="fill:white;"/>
        </g>
        <path d="M40,14L40,22L40,14Z" style="fill:white;"/>
        <rect x="30" y="14" width="10" height="8" style="fill:white;"/>
    </g>
    <g transform="matrix(0.0823035,0,0,0.0823035,24.4969,17.812)">
        <g transform="matrix(1.20039,0,0,1.15922,-47.4141,47.7685)">
            <rect x="182.882" y="155.008" width="33.713" height="15" style="fill:rgb(186,104,37);"/>
        </g>
        <g transform="matrix(1.20039,0,0,1.15922,-47.4141,47.7685)">
            <rect x="101.592" y="132.689" width="33.713" height="15" style="fill:rgb(186,104,37);"/>
        </g>
        <g transform="matrix(1.20039,0,0,1.15922,-47.4141,47.7685)">
            <rect x="182.882" y="132.689" width="33.713" height="15" style="fill:rgb(186,104,37);"/>
        </g>
        <g transform="matrix(1.20039,0,0,1.15922,-47.4141,47.7685)">
            <rect x="182.882" y="88.053" width="33.713" height="15" style="fill:rgb(186,104,37);"/>
        </g>
        <g transform="matrix(1.20039,0,0,1.15922,-47.4141,47.7685)">
            <rect x="182.882" y="110.371" width="33.713" height="15" style="fill:rgb(186,104,37);"/>
        </g>
        <g transform="matrix(1.20039,0,0,1.15922,-47.4141,47.7685)">
            <rect x="101.592" y="155.008" width="33.713" height="15" style="fill:rgb(186,104,37);"/>
        </g>
        <g transform="matrix(1.20039,0,0,1.15922,-47.4141,47.7685)">
            <path d="M112.09,123.663L112.09,123.662L118.286,113.621L124.548,123.662L134.588,123.662L123.647,107.909L133.82,91.54L123.911,91.54L118.33,101.472L112.53,91.54L102.906,91.54L112.925,107.228L102.269,123.663L112.09,123.663Z" style="fill:rgb(186,104,37);fill-rule:nonzero;"/>
        </g>
        <g transform="matrix(1.20039,0,0,1.15922,-47.4141,47.7685)">
            <rect x="142.457" y="110.371" width="33.713" height="15" style="fill:rgb(186,104,37);"/>
        </g>
        <g transform="matrix(1.20039,0,0,1.15922,-47.4141,47.7685)">
            <rect x="142.457" y="88.053" width="33.713" height="15" style="fill:rgb(186,104,37);"/>
        </g>
        <g transform="matrix(0.779711,0,0,0.805098,19.7763,73.4981)">
            <path d="M283.149,52.723L232.624,2.197C231.218,0.79 229.311,0 227.321,0L40.342,0C36.2,0 32.842,3.358 32.842,7.5L32.842,310.688C32.842,314.83 36.2,318.188 40.342,318.188L277.846,318.188C281.988,318.188 285.346,314.83 285.346,310.688L285.346,58.025C285.346,56.036 284.556,54.129 283.149,52.723ZM234.821,25.606L259.739,50.525L234.821,50.525L234.821,25.606L234.821,25.606ZM47.842,15L219.821,15L219.821,25.263L47.842,25.263L47.842,15ZM47.842,303.188L47.842,40.263L219.821,40.263L219.821,58.026C219.821,62.169 223.179,65.526 227.321,65.526L270.345,65.526L270.345,303.188L47.842,303.188Z" style="fill:rgb(186,104,37);fill-rule:nonzero;"/>
        </g>
        <g transform="matrix(1.20039,0,0,1.15922,-47.4141,47.7685)">
            <rect x="142.457" y="132.689" width="33.713" height="15" style="fill:rgb(186,104,37);"/>
        </g>
        <g transform="matrix(1.20039,0,0,1.15922,-47.4141,47.7685)">
            <rect x="142.457" y="155.008" width="33.713" height="15" style="fill:rgb(186,104,37);"/>
        </g>
    </g>
</svg>
