<?xml version="1.0" encoding="UTF-8" standalone="no"?>
<!DOCTYPE svg PUBLIC "-//W3C//DTD SVG 1.1//EN" "http://www.w3.org/Graphics/SVG/1.1/DTD/svg11.dtd">
<svg width="100%" height="100%" viewBox="0 0 24 24" version="1.1" xmlns="http://www.w3.org/2000/svg" xmlns:xlink="http://www.w3.org/1999/xlink" xml:space="preserve" style="fill-rule:evenodd;clip-rule:evenodd;stroke-linejoin:round;stroke-miterlimit:1.41421;">
    <g transform="matrix(0.0183071,0,0,0.0170848,-62.0845,-109.762)">
        <g transform="matrix(1,0,0,1,3436.7,6491.61)">
            <path d="M1059.8,315.465L603.383,573.666L140.152,315.5L599.993,50L1059.8,315.465" style="fill:rgb(57,18,39);fill-rule:nonzero;"/>
        </g>
        <g transform="matrix(1,0,0,1,3436.7,6491.61)">
            <path d="M118.458,351.787L118.458,884.06L579.08,1150L580.256,951.323L285.879,781.359L285.879,445.091L118.458,351.787" style="fill:rgb(14,106,183);fill-rule:nonzero;"/>
        </g>
        <g transform="matrix(1,0,0,1,3436.7,6491.61)">
            <path d="M1081.54,351.727L914.117,446.443L914.117,781.359L622.527,949.712L621.348,1149.75L1081.54,884.06L1081.54,351.727" style="fill:rgb(184,136,23);fill-rule:nonzero;"/>
        </g>
        <g transform="matrix(1,0,0,1,3436.7,6491.61)">
            <path d="M305.209,407.491L285.879,418.652L285.879,445.091L582.267,610.272L580.256,951.323L599.993,962.72L622.527,949.712L624.527,610.272L914.117,446.443L914.117,418.652L895.941,408.16L603.383,573.666L305.209,407.491" style="fill:rgb(230,215,216);fill-rule:nonzero;"/>
        </g>
        <g transform="matrix(1,0,0,1,3436.7,6491.61)">
            <path d="M599.993,237.293L305.209,407.491L603.383,573.666L895.941,408.16L599.993,237.293" style="fill:rgb(123,64,25);fill-rule:nonzero;"/>
        </g>
        <g transform="matrix(1,0,0,1,3436.7,6491.61)">
            <path d="M285.879,445.091L285.879,781.359L580.256,951.323L582.267,610.272L285.879,445.091" style="fill:rgb(13,90,154);fill-rule:nonzero;"/>
        </g>
        <g transform="matrix(1,0,0,1,3436.7,6491.61)">
            <path d="M914.117,446.443L624.527,610.272L622.527,949.712L914.117,781.359L914.117,446.443" style="fill:rgb(203,144,38);fill-rule:nonzero;"/>
        </g>
    </g>
</svg>
