<?xml version="1.0" encoding="UTF-8" standalone="no"?>
<!DOCTYPE svg PUBLIC "-//W3C//DTD SVG 1.1//EN" "http://www.w3.org/Graphics/SVG/1.1/DTD/svg11.dtd">
<svg width="100%" height="100%" viewBox="0 0 48 48" version="1.1" xmlns="http://www.w3.org/2000/svg" xmlns:xlink="http://www.w3.org/1999/xlink" xml:space="preserve" style="fill-rule:evenodd;clip-rule:evenodd;stroke-linecap:round;stroke-linejoin:round;stroke-miterlimit:1.5;">
    <g transform="matrix(1.19791,0,0,1.13333,-1.7499,-3.19998)">
        <g transform="matrix(0.910677,0,0,0.962567,2.70876,5.22993)">
            <rect x="6" y="12" width="6" height="6" style="fill:none;stroke:rgb(115,115,115);stroke-width:1.38px;"/>
        </g>
        <g transform="matrix(0.910677,0,0,0.962567,2.70876,-3.43317)">
            <rect x="6" y="12" width="6" height="6" style="fill:none;stroke:rgb(115,115,115);stroke-width:1.38px;"/>
        </g>
        <g transform="matrix(0.910677,0,0,0.962567,8.17282,5.22993)">
            <rect x="6" y="12" width="6" height="6" style="fill:rgb(175,98,42);stroke:rgb(115,115,115);stroke-width:1.38px;"/>
        </g>
        <g transform="matrix(0.910677,0,0,0.962567,8.17282,-3.43317)">
            <rect x="6" y="12" width="6" height="6" style="fill:none;stroke:rgb(115,115,115);stroke-width:1.38px;"/>
        </g>
        <g transform="matrix(0.910677,0,0,0.962567,13.6369,5.22993)">
            <rect x="6" y="12" width="6" height="6" style="fill:rgb(175,98,42);stroke:rgb(115,115,115);stroke-width:1.38px;"/>
        </g>
        <g transform="matrix(0.910677,0,0,0.962567,13.6369,-3.43317)">
            <rect x="6" y="12" width="6" height="6" style="fill:none;stroke:rgb(115,115,115);stroke-width:1.38px;"/>
        </g>
        <g transform="matrix(0.910677,0,0,0.962567,19.101,5.22993)">
            <rect x="6" y="12" width="6" height="6" style="fill:none;stroke:rgb(115,115,115);stroke-width:1.38px;"/>
        </g>
        <g transform="matrix(0.910677,0,0,0.962567,19.101,-3.43317)">
            <rect x="6" y="12" width="6" height="6" style="fill:rgb(175,98,42);stroke:rgb(115,115,115);stroke-width:1.38px;"/>
        </g>
        <g transform="matrix(0.910677,0,0,0.962567,24.565,5.22993)">
            <rect x="6" y="12" width="6" height="6" style="fill:none;stroke:rgb(115,115,115);stroke-width:1.38px;"/>
        </g>
        <g transform="matrix(0.910677,0,0,0.962567,24.565,-3.43317)">
            <rect x="6" y="12" width="6" height="6" style="fill:none;stroke:rgb(115,115,115);stroke-width:1.38px;"/>
        </g>
        <g transform="matrix(0.910677,0,0,0.962567,2.30401,13.893)">
            <rect x="6" y="12" width="6" height="6" style="fill:rgb(175,98,42);stroke:rgb(115,115,115);stroke-width:1.38px;"/>
        </g>
        <g transform="matrix(0.910677,0,0,0.962567,2.30401,22.5561)">
            <rect x="6" y="12" width="6" height="6" style="fill:none;stroke:rgb(115,115,115);stroke-width:1.38px;"/>
        </g>
        <g transform="matrix(0.910677,0,0,0.962567,7.76808,13.893)">
            <rect x="6" y="12" width="6" height="6" style="fill:rgb(175,98,42);stroke:rgb(115,115,115);stroke-width:1.38px;"/>
        </g>
        <g transform="matrix(0.910677,0,0,0.962567,7.76808,22.5561)">
            <rect x="6" y="12" width="6" height="6" style="fill:rgb(175,98,42);stroke:rgb(115,115,115);stroke-width:1.38px;"/>
        </g>
        <g transform="matrix(0.910677,0,0,0.962567,13.2321,13.893)">
            <rect x="6" y="12" width="6" height="6" style="fill:rgb(175,98,42);stroke:rgb(115,115,115);stroke-width:1.38px;"/>
        </g>
        <g transform="matrix(0.910677,0,0,0.962567,13.2321,22.5561)">
            <rect x="6" y="12" width="6" height="6" style="fill:rgb(175,98,42);stroke:rgb(115,115,115);stroke-width:1.38px;"/>
        </g>
        <g transform="matrix(0.910677,0,0,0.962567,18.6962,13.893)">
            <rect x="6" y="12" width="6" height="6" style="fill:none;stroke:rgb(115,115,115);stroke-width:1.38px;"/>
        </g>
        <g transform="matrix(0.910677,0,0,0.962567,18.6962,22.5561)">
            <rect x="6" y="12" width="6" height="6" style="fill:rgb(175,98,42);stroke:rgb(115,115,115);stroke-width:1.38px;"/>
        </g>
        <g transform="matrix(0.910677,0,0,0.962567,24.1603,13.893)">
            <rect x="6" y="12" width="6" height="6" style="fill:none;stroke:rgb(115,115,115);stroke-width:1.38px;"/>
        </g>
        <g transform="matrix(0.910677,0,0,0.962567,24.1603,22.5561)">
            <rect x="6" y="12" width="6" height="6" style="fill:rgb(175,98,42);stroke:rgb(115,115,115);stroke-width:1.38px;"/>
        </g>
    </g>
    <g id="Layer1">
        <g transform="matrix(0.484848,0,0,0.484848,5.73737,14.9697)">
            <text x="7px" y="12.596px" style="font-family:'ArialMT', 'Arial', sans-serif;font-size:12px;">L</text>
        </g>
        <g transform="matrix(0.484848,0,0,0.484848,5.73737,5.15152)">
            <text x="7px" y="12.596px" style="font-family:'ArialMT', 'Arial', sans-serif;font-size:12px;">L</text>
        </g>
        <g transform="matrix(0.484848,0,0,0.484848,12.2828,14.9697)">
            <text x="7px" y="12.596px" style="font-family:'ArialMT', 'Arial', sans-serif;font-size:12px;fill:rgb(242,242,242);">e</text>
        </g>
        <g transform="matrix(0.484848,0,0,0.484848,12.2828,5.15152)">
            <text x="7px" y="12.596px" style="font-family:'ArialMT', 'Arial', sans-serif;font-size:12px;">e</text>
        </g>
        <g transform="matrix(0.484848,0,0,0.484848,18.8283,14.9697)">
            <text x="7px" y="12.596px" style="font-family:'ArialMT', 'Arial', sans-serif;font-size:12px;fill:rgb(242,242,242);">a</text>
        </g>
        <g transform="matrix(0.484848,0,0,0.484848,18.8283,5.15152)">
            <text x="7px" y="12.596px" style="font-family:'ArialMT', 'Arial', sans-serif;font-size:12px;">a</text>
        </g>
        <g transform="matrix(0.484848,0,0,0.484848,26.4646,14.9697)">
            <text x="7px" y="12.596px" style="font-family:'ArialMT', 'Arial', sans-serif;font-size:12px;">r</text>
        </g>
        <g transform="matrix(0.484848,0,0,0.484848,26.4646,5.15152)">
            <text x="7px" y="12.596px" style="font-family:'ArialMT', 'Arial', sans-serif;font-size:12px;fill:rgb(242,242,242);">r</text>
        </g>
        <g transform="matrix(0.484848,0,0,0.484848,31.9192,14.9697)">
            <text x="7px" y="12.596px" style="font-family:'ArialMT', 'Arial', sans-serif;font-size:12px;">n</text>
        </g>
        <g transform="matrix(0.484848,0,0,0.484848,31.9192,5.15152)">
            <text x="7px" y="12.596px" style="font-family:'ArialMT', 'Arial', sans-serif;font-size:12px;">n</text>
        </g>
        <g transform="matrix(0.484848,0,0,0.484848,5.25253,24.7879)">
            <text x="7px" y="12.596px" style="font-family:'ArialMT', 'Arial', sans-serif;font-size:12px;fill:rgb(242,242,242);">L</text>
        </g>
        <g transform="matrix(0.484848,0,0,0.484848,5.25253,34.6061)">
            <text x="7px" y="12.596px" style="font-family:'ArialMT', 'Arial', sans-serif;font-size:12px;">L</text>
        </g>
        <g transform="matrix(0.484848,0,0,0.484848,11.798,24.7879)">
            <text x="7px" y="12.596px" style="font-family:'ArialMT', 'Arial', sans-serif;font-size:12px;fill:rgb(242,242,242);">e</text>
        </g>
        <g transform="matrix(0.484848,0,0,0.484848,11.798,34.6061)">
            <text x="7px" y="12.596px" style="font-family:'ArialMT', 'Arial', sans-serif;font-size:12px;fill:rgb(242,242,242);">e</text>
        </g>
        <g transform="matrix(0.484848,0,0,0.484848,18.3434,24.7879)">
            <text x="7px" y="12.596px" style="font-family:'ArialMT', 'Arial', sans-serif;font-size:12px;fill:rgb(242,242,242);">a</text>
        </g>
        <g transform="matrix(0.484848,0,0,0.484848,18.3434,34.6061)">
            <text x="7px" y="12.596px" style="font-family:'ArialMT', 'Arial', sans-serif;font-size:12px;fill:rgb(242,242,242);">a</text>
        </g>
        <g transform="matrix(0.484848,0,0,0.484848,25.9798,24.7879)">
            <text x="7px" y="12.596px" style="font-family:'ArialMT', 'Arial', sans-serif;font-size:12px;">r</text>
        </g>
        <g transform="matrix(0.484848,0,0,0.484848,25.9798,34.6061)">
            <text x="7px" y="12.596px" style="font-family:'ArialMT', 'Arial', sans-serif;font-size:12px;fill:rgb(242,242,242);">r</text>
        </g>
        <g transform="matrix(0.484848,0,0,0.484848,31.4343,24.7879)">
            <text x="7px" y="12.596px" style="font-family:'ArialMT', 'Arial', sans-serif;font-size:12px;">n</text>
        </g>
        <g transform="matrix(0.484848,0,0,0.484848,31.4343,34.6061)">
            <text x="7px" y="12.596px" style="font-family:'ArialMT', 'Arial', sans-serif;font-size:12px;fill:rgb(242,242,242);">n</text>
        </g>
    </g>
</svg>
