<?xml version="1.0" encoding="UTF-8" standalone="no"?>
<!DOCTYPE svg PUBLIC "-//W3C//DTD SVG 1.1//EN" "http://www.w3.org/Graphics/SVG/1.1/DTD/svg11.dtd">
<svg width="100%" height="100%" viewBox="0 0 48 48" version="1.1" xmlns="http://www.w3.org/2000/svg" xmlns:xlink="http://www.w3.org/1999/xlink" xml:space="preserve" style="fill-rule:evenodd;clip-rule:evenodd;stroke-linejoin:round;stroke-miterlimit:1.41421;">
    <g transform="matrix(1.19791,0,0,1.13333,-4.7499,-3.19998)">
        <g id="path3499" transform="matrix(0.53182,0,0,0.527402,7.3117,7.16182)">
            <path d="M54.755,56.661L54.755,-0.005L6.755,-0.005L6.755,63.995L47.422,63.995L54.755,56.661ZM47.634,61.802L47.634,56.874L52.562,56.874L47.634,61.802ZM8.155,1.395L53.355,1.395L53.355,55.474L46.234,55.474L46.234,62.595L8.155,62.595L8.155,1.395L8.155,1.395Z" style="fill:rgb(104,50,10);fill-rule:nonzero;stroke:rgb(104,50,10);stroke-width:0.57px;"/>
        </g>
        <g id="rect3507" transform="matrix(0.615653,0,0,3.43979,4.62505,-106.881)">
            <rect x="14.007" y="39.769" width="33.527" height="1.4" style="fill:rgb(70,53,40);"/>
        </g>
        <g id="rect3513" transform="matrix(0.615653,0,0,2.95203,4.60137,-60.4464)">
            <rect x="14.007" y="28.561" width="33.527" height="1.4" style="fill:rgb(0,118,132);"/>
        </g>
        <g id="rect3523" transform="matrix(0.615653,0,0,3.43979,4.72388,-23.7539)">
            <rect x="14.007" y="9.881" width="33.527" height="1.4"/>
        </g>
        <g transform="matrix(1.35873,0,0,1.5012,2.42184,-7.51268)">
            <rect x="18" y="11" width="1" height="5" style="fill:rgb(242,242,242);"/>
        </g>
        <g transform="matrix(1.35873,0,0,1.17114,-3.50684,-3.30318)">
            <rect x="18" y="11" width="1" height="5" style="fill:rgb(242,242,242);"/>
        </g>
        <g transform="matrix(1.23623,0,0,1.1203,-5.24959,4.33443)">
            <rect x="18" y="11" width="1" height="5" style="fill:rgb(242,242,242);"/>
        </g>
        <g transform="matrix(1.35873,0,0,1.01125,-0.38522,5.9215)">
            <rect x="18" y="11" width="1" height="5" style="fill:rgb(242,242,242);"/>
        </g>
        <g transform="matrix(1.60747,0,0,1.01726,-6.62533,12.3311)">
            <rect x="18" y="11" width="1" height="5" style="fill:rgb(242,242,242);"/>
        </g>
        <g transform="matrix(1.35873,0,0,0.963141,4.58431,12.9573)">
            <rect x="18" y="11" width="1" height="5" style="fill:rgb(242,242,242);"/>
        </g>
        <g transform="matrix(1.35873,0,0,1.16422,3.07146,16.8256)">
            <rect x="18" y="11" width="1" height="5" style="fill:rgb(242,242,242);"/>
        </g>
        <g transform="matrix(1.23623,0,0,1.15457,-5.09945,16.897)">
            <rect x="18" y="11" width="1" height="5" style="fill:rgb(242,242,242);"/>
        </g>
        <g transform="matrix(0.53102,0,0,0.561277,10.6303,8.37089)">
            <g>
                <text x="12px" y="24.596px" style="font-family:'ArialMT', 'Arial', sans-serif;font-size:12px;fill:rgb(255,91,91);">/</text>
                <text x="15.334px" y="24.596px" style="font-family:'ArialMT', 'Arial', sans-serif;font-size:12px;">\s+</text>
                <text x="31.676px" y="24.596px" style="font-family:'ArialMT', 'Arial', sans-serif;font-size:12px;fill:rgb(235,111,111);">/</text>
            </g>
        </g>
    </g>
</svg>
