<?xml version="1.0" encoding="UTF-8" standalone="no"?>
<!DOCTYPE svg PUBLIC "-//W3C//DTD SVG 1.1//EN" "http://www.w3.org/Graphics/SVG/1.1/DTD/svg11.dtd">
<svg width="100%" height="100%" viewBox="0 0 48 48" version="1.1" xmlns="http://www.w3.org/2000/svg" xmlns:xlink="http://www.w3.org/1999/xlink" xml:space="preserve" style="fill-rule:evenodd;clip-rule:evenodd;stroke-linecap:round;stroke-linejoin:round;stroke-miterlimit:1.5;">
    <g transform="matrix(1.19791,0,0,1.13333,-1.7499,-3.19998)">
        <g transform="matrix(0.417394,0,0,0.441177,5.21734,6.7941)">
            <text x="9px" y="17.596px" style="font-family:'ArialMT', 'Arial', sans-serif;font-size:12px;">the</text>
        </g>
        <g transform="matrix(1.15943,0,0,1.37868,-2.43488,-7.10296)">
            <g transform="matrix(0.75,0,0,0.666667,3,6.66667)">
                <text x="12px" y="28.596px" style="font-family:'ArialMT', 'Arial', sans-serif;font-size:12px;fill:none;">a</text>
            </g>
            <g transform="matrix(0.75,0,0,0.666667,3,6.66667)">
                <text x="12px" y="28.596px" style="font-family:'ArialMT', 'Arial', sans-serif;font-size:12px;fill:rgb(0,173,255);">a</text>
            </g>
        </g>
        <g transform="matrix(0.596277,0,0,0.630252,6.46952,9.48055)">
            <text x="28px" y="28.596px" style="font-family:'ArialMT', 'Arial', sans-serif;font-size:12px;">to</text>
        </g>
        <g transform="matrix(0.682141,0,0,0.721009,2.04143,7.62615)">
            <text x="7px" y="40.596px" style="font-family:'ArialMT', 'Arial', sans-serif;font-size:12px;">do</text>
        </g>
        <g transform="matrix(0.493284,0,0,0.521391,12.0474,16.0902)">
            <text x="20px" y="40.596px" style="font-family:'ArialMT', 'Arial', sans-serif;font-size:12px;">that</text>
        </g>
        <g transform="matrix(0.903345,0,0,1.76471,-0.664486,-5.11767)">
            <g transform="matrix(0.642857,0,0,0.347826,11.0714,5.86957)">
                <text x="31px" y="17.596px" style="font-family:'ArialMT', 'Arial', sans-serif;font-size:12px;fill:none;">by</text>
            </g>
            <g transform="matrix(0.642857,0,0,0.347826,11.0714,5.86957)">
                <text x="31px" y="17.596px" style="font-family:'ArialMT', 'Arial', sans-serif;font-size:12px;fill:rgb(71,76,126);">by</text>
            </g>
        </g>
        <g transform="matrix(0.927542,0,0,1.14846,-0.394289,6.82912)">
            <g transform="matrix(0.9,0,0,0.768293,2,0.463415)">
                <text x="20px" y="10.596px" style="font-family:'ArialMT', 'Arial', sans-serif;font-size:12px;fill:none;">it</text>
            </g>
            <g transform="matrix(0.9,0,0,0.768293,2,0.463415)">
                <text x="20px" y="10.596px" style="font-family:'ArialMT', 'Arial', sans-serif;font-size:12px;fill:rgb(106,51,51);">it</text>
            </g>
        </g>
        <g transform="matrix(0.333915,0,0,0.352941,4.9669,11.8235)">
            <text x="7px" y="25.596px" style="font-family:'ArialMT', 'Arial', sans-serif;font-size:12px;fill:rgb(176,31,31);">about</text>
        </g>
        <g transform="matrix(0.73739,0,0,0.965995,3.26977,0.605212)">
            <path d="M40,8C9.59,36.51 10,36 10,36" style="fill:none;stroke:rgb(175,98,42);stroke-width:2.01px;"/>
        </g>
        <g transform="matrix(0.834788,0,0,0.882353,1.46079,2.82351)">
            <path d="M12,7.143C37.71,36.734 37.5,36.899 37.5,36.899" style="fill:none;stroke:rgb(175,98,42);stroke-width:2px;"/>
        </g>
    </g>
</svg>
