<?xml version="1.0" encoding="UTF-8" standalone="no"?>
<!DOCTYPE svg PUBLIC "-//W3C//DTD SVG 1.1//EN" "http://www.w3.org/Graphics/SVG/1.1/DTD/svg11.dtd">
<svg width="100%" height="100%" viewBox="0 0 1800 1350" version="1.1" xmlns="http://www.w3.org/2000/svg" xmlns:xlink="http://www.w3.org/1999/xlink" xml:space="preserve" style="fill-rule:evenodd;clip-rule:evenodd;stroke-linejoin:round;stroke-miterlimit:1.41421;">
    <g transform="matrix(0.49758,0,0,-0.511657,110.339,1183.93)">
        <path d="M2108,308C2069,285 2051,255 2068,238C2074,232 2099,233 2139,241C2198,254 2239,250 2318,225C2353,213 2343,232 2294,268C2244,305 2190,330 2163,330C2153,330 2128,320 2108,308Z" style="fill-rule:nonzero;"/>
    </g>
    <path d="M676.783,250.76C659.445,253.319 628.953,261.505 608.028,269.18C574.548,281.46 563.786,282.995 496.228,282.995L421.494,283.506L370.676,304.484C307.302,330.579 261.865,367.418 234.363,415.002C218.221,443.143 212.242,448.772 196.697,451.841C160.826,457.981 79.516,544.451 93.267,562.871C95.06,565.941 92.071,577.197 86.69,587.942C71.146,617.107 81.31,705.623 108.213,774.185L127.345,824.839L120.769,884.191C113.594,952.753 97.452,1017.73 87.886,1020.29C83.701,1021.32 73.537,1023.36 63.972,1024.9C47.231,1028.48 0,1061.22 0,1069.41C0,1071.97 6.577,1070.43 14.947,1065.83C25.708,1059.69 40.057,1058.15 72.939,1059.69C120.769,1061.22 125.552,1057.64 108.811,1033.08L99.843,1020.29L112.399,1030.01C119.573,1035.64 125.552,1043.32 126.149,1047.92C126.149,1053.55 127.943,1052.53 131.53,1044.85L136.911,1033.6L160.826,1043.83C190.121,1055.6 193.11,1055.6 218.818,1045.36C237.95,1037.69 239.146,1035.64 239.146,1010.57C239.146,995.733 240.939,982.43 242.733,980.383C245.124,978.848 257.082,981.918 269.637,987.034C297.139,999.314 342.576,1000.34 367.089,989.593C376.057,985.499 391.601,981.918 401.167,981.918C425.082,981.918 446.605,963.498 462.747,929.217C470.519,912.844 477.694,899.541 478.889,899.541C480.085,899.541 495.032,904.658 511.174,910.798C535.089,920.007 554.818,923.077 609.822,924.612C647.487,925.636 691.131,926.659 706.078,927.171L733.58,928.194L719.829,963.498C712.057,982.941 705.48,1008.01 705.48,1019.27L705.48,1039.22L729.395,1012.11C742.548,996.756 753.309,979.871 753.309,973.22C753.309,967.08 756.299,955.823 760.484,948.66C766.462,936.892 770.049,935.357 785.594,938.427C795.758,939.962 816.683,943.032 832.227,944.567L860.327,947.125L852.555,962.987C841.793,984.988 835.815,1016.71 840.597,1023.36C846.576,1032.06 884.242,997.268 890.818,976.801L896.797,958.382L951.202,957.358C1000.83,956.847 1090.51,945.59 1116.21,937.404C1124.58,934.334 1125.18,937.404 1122.79,961.963C1115.62,1019.78 1129.96,1057.64 1146.7,1025.92C1150.29,1018.76 1161.65,1008.01 1171.22,1001.87C1187.36,991.639 1189.75,987.034 1189.75,964.522C1189.75,950.195 1191.54,933.822 1193.34,928.194C1196.92,915.914 1282.42,879.075 1336.23,866.283C1415.74,847.352 1488.09,805.396 1510.21,764.464C1536.51,716.88 1523.96,712.275 1480.91,754.231C1455.2,779.302 1449.22,792.605 1470.75,775.72C1477.92,770.604 1477.92,771.115 1470.75,778.79C1466.56,783.907 1458.79,786.465 1454.6,785.442C1449.82,783.907 1438.46,785.953 1428.9,790.047C1417.54,795.163 1394.22,797.721 1364.33,797.721C1317.1,797.721 1316.5,797.721 1313.51,783.395C1311.71,775.209 1302.75,765.999 1291.99,760.37C1274.05,751.672 1273.45,749.626 1273.45,716.88C1273.45,665.714 1279.43,643.201 1292.58,640.131C1301.55,638.596 1303.35,635.015 1300.36,626.828C1289.59,597.664 1279.43,552.126 1279.43,529.102L1279.43,503.519L1325.47,505.054C1351.17,506.077 1396.01,504.542 1425.31,501.984C1469.55,498.402 1482.7,499.426 1509.01,507.1C1531.13,513.24 1558.04,515.799 1605.27,516.31C1680.6,516.31 1734.4,507.1 1773.27,487.657C1816.31,466.168 1804.95,456.958 1756.53,474.354C1697.34,496.356 1602.88,501.472 1539.5,486.634L1521.57,482.541L1554.45,469.238C1592.11,454.4 1650.11,416.537 1650.11,406.304C1650.11,402.722 1646.52,398.629 1641.74,397.094C1631.57,393.513 1618.42,405.281 1625,411.421C1627.39,413.979 1626.19,413.979 1622.01,412.444C1618.42,410.397 1596.3,419.095 1572.98,431.375C1549.66,443.655 1519.17,455.935 1505.42,459.005C1469.55,466.679 1430.09,470.773 1439.66,465.656C1444.44,463.098 1438.46,459.516 1421.72,455.423C1407.37,451.841 1385.85,444.167 1373.89,439.05C1348.18,427.794 1342.8,426.77 1348.78,434.957C1355.36,444.678 1330.85,435.468 1209.48,385.326C1022.35,307.554 949.409,284.018 848.968,267.645C804.726,260.993 804.726,260.482 840,263.04C882.448,266.11 968.54,285.553 1022.35,304.484C1043.87,311.647 1122.79,342.859 1198.12,373.558C1272.85,404.769 1335.63,428.817 1336.83,427.794C1339.81,425.235 1096.48,324.439 1031.32,301.414C903.971,256.389 770.647,237.457 676.783,250.76ZM203.274,985.499C203.274,1011.08 202.676,1012.62 188.327,1012.62C179.359,1012.62 164.413,1016.2 154.249,1020.8L135.715,1028.99L139.302,999.826C141.096,983.453 145.879,967.591 148.868,965.033C152.455,961.963 155.445,942.009 155.445,921.031L156.043,882.145L179.359,920.519C197.295,950.195 202.676,965.033 203.274,985.499ZM1215.46,629.898C1208.88,661.621 1201.11,687.204 1198.12,686.692C1170.02,681.064 1129.96,666.226 1129.96,661.109C1129.96,657.527 1119.2,652.411 1106.05,649.341C1086.92,644.736 1082.73,642.178 1086.92,636.038C1089.91,631.945 1119.8,603.804 1154.48,574.127L1216.65,520.403L1222.04,546.498C1226.22,565.941 1224.43,586.407 1215.46,629.898ZM279.47,569.053C304.186,569.053 324.252,589.119 324.252,613.834C324.252,638.55 304.186,658.615 279.47,658.615C254.755,658.615 234.689,638.55 234.689,613.834C234.689,589.119 254.755,569.053 279.47,569.053ZM921.309,440.073C948.811,448.772 1007.4,463.61 1051.64,473.331C1095.89,482.541 1132.95,491.239 1134.15,492.774C1138.33,496.356 1063,539.846 1022.35,557.243C1000.83,566.453 982.291,575.662 980.498,577.197C973.323,585.384 897.395,613.525 889.024,610.455C880.057,607.897 866.904,550.591 866.904,515.287C866.904,499.426 866.904,499.426 879.459,509.147C892.014,518.868 892.612,518.868 888.427,508.635C873.48,466.679 863.316,424.212 868.697,424.212C869.893,424.212 893.21,431.375 921.309,440.073ZM805.323,608.408L808.911,558.266C811.302,531.148 813.096,495.844 813.096,480.494C813.096,433.422 804.128,433.422 786.192,481.006C777.224,504.542 763.473,539.335 755.103,558.266C741.95,589.477 741.352,593.57 749.124,600.734C754.505,604.827 768.854,608.408 782.007,608.408L805.323,608.408ZM663.032,355.138C707.274,370.488 746.135,385.326 749.124,387.884C755.701,393.513 735.373,417.56 666.021,483.564C639.117,509.147 609.822,539.846 601.452,551.103C586.505,571.569 585.309,572.081 573.95,563.894C567.373,558.778 561.993,552.638 561.993,550.08C561.993,547.521 551.231,530.637 537.48,512.729C512.968,481.006 473.509,453.888 439.43,446.725C424.484,443.655 424.484,443.655 435.245,428.305C462.149,387.884 544.057,326.997 569.765,326.997C576.939,326.997 619.388,339.789 663.032,355.138ZM845.978,288.111C887.231,294.763 967.345,314.206 1013.38,328.532C1040.88,337.23 1140.13,375.605 1270.46,428.305C1320.09,448.26 1367.32,466.168 1376.88,467.703C1385.85,469.749 1393.02,473.843 1393.02,476.401C1393.02,479.983 1378.68,480.494 1352.97,478.448C1330.25,476.913 1304.54,475.378 1295.57,475.378C1281.82,475.378 1279.43,473.331 1281.82,466.168C1286.6,454.4 1270.46,441.608 1245.35,437.003C1229.81,434.445 1220.84,436.492 1199.91,449.283C1174.8,464.121 1173.01,464.121 1131.16,460.028C1071.37,453.376 992.455,433.422 903.373,402.211L871.686,390.954L875.274,368.953C878.263,349.51 877.067,345.417 862.718,334.16C854.348,327.509 841.793,321.881 835.815,321.881C823.857,321.881 793.366,344.394 788.583,356.673C786.192,363.325 767.658,358.72 697.11,334.16C688.74,331.602 686.946,332.114 690.533,336.719C694.121,341.835 691.729,342.347 680.968,339.789C656.455,333.137 646.292,325.974 666.619,329.044C679.174,331.09 674.391,328.02 651.672,318.811C619.985,306.019 619.388,305.508 633.736,300.391C686.946,282.483 777.224,277.366 845.978,288.111ZM490.249,316.764C490.249,318.299 478.292,328.532 463.345,339.277C448.398,350.022 420.897,375.605 402.961,396.071C372.47,430.864 368.285,433.422 355.132,429.329C347.359,426.77 324.043,425.747 304.313,427.794L268.441,430.864L282.192,410.909C302.519,381.233 334.804,355.65 371.274,340.812C419.103,320.857 490.249,306.531 490.249,316.764Z" style="fill:rgb(63,84,0);"/>
</svg>
